<svg width="412" height="112" viewBox="0 0 412 112" fill="none" xmlns="http://www.w3.org/2000/svg">
<path d="M129.1 4.5H136.9V49H129.1V4.5Z" fill="white"/>
<path d="M147.8 4.5H181.6V9.89999L157 41.7H182.3V49H146.6V43.7L171.2 11.9H147.9V4.5H147.8Z" fill="white"/>
<path d="M208.7 3.8C221.9 3.8 231.9 12.9 231.9 26.7C231.9 40 221.9 49.6 208.7 49.6C195.5 49.6 185.6 40.5 185.6 26.7C185.6 13.9 195 3.8 208.7 3.8ZM208.7 42.4C218 42.4 223.6 35.5 223.6 26.8C223.6 17.6 217.1 11.2 208.7 11.2C200.2 11.2 193.8 17.6 193.8 26.8C193.8 35.7 200.4 42.4 208.7 42.4Z" fill="white"/>
<path d="M283.2 49H275.9L265.2 16.8L254.6 49H247.2L233.9 4.5H242.7L251.7 36.2L261.6 4.5H269.4L279.6 36.3L288.5 4.5H296L283.2 49Z" fill="white"/>
<path d="M302.4 4.5H328.1V11.8H310.2V22.9H326.2V30.2H310.2V41.7H328.8V49H302.4V4.5V4.5Z" fill="white"/>
<path d="M338.9 4.5H346.7V41.7H366.7V49H338.9V4.5Z" fill="white"/>
<path d="M373.7 4.5H374.5C377.2 4.5 383.5 4.29999 386.8 4.29999C404.6 4.29999 411.8 14.5 411.8 26.3C411.8 38.8 403.3 49.1 386.3 49.1C383.6 49.1 378.7 49 374.6 49H373.7V4.5V4.5ZM381.5 11.8V41.7C383.7 41.8 385.4 41.8 386.5 41.8C397.2 41.8 403.5 35.7 403.5 26.3C403.5 17.3 397.3 11.6 386.7 11.6C384.8 11.7 383.3 11.7 381.5 11.8Z" fill="white"/>
<path d="M29.6 78.7C28.4 76.9 27.1 75.2 26.1 73.3C23.2 68.1 21.7 62.6 21.8 56.6C21.9 47.6 21.8 38.7 21.8 29.7C21.8 23.5 21.8 17.4 21.8 11.2C21.8 6.40001 25.2 2.50001 29.9 1.80001C31.2 1.60001 32.6 1.7 33.9 1.7C48.4 1.7 62.8 1.7 77.3 1.7C78.2 1.7 79.1 1.70001 80 1.80001C84.7 2.50001 88 6.50002 88 11.2C88 26.4 88 41.6 88 56.8C88 64.8 85.4 71.8 80.5 78.1C80.4 78.2 80.3 78.3 80.2 78.5C80.2 78.5 80.2 78.5 80.1 78.6C80.4 78.7 80.6 78.9 80.9 79C84.5 80.8 88.2 82.4 91.7 84.3C96.3 86.7 100.3 89.8 103.3 94.1C106.2 98.3 107.7 102.9 108 108C108 108.8 108.1 109.6 108.1 110.4C72.5 110.4 37 110.4 1.29999 110.4C1.59999 108.2 1.69999 106.1 2.09999 104C3.39999 96.9 7.39998 91.4 13.2 87.2C17 84.4 21.2 82.4 25.5 80.4C27 80 28.3 79.3 29.6 78.7ZM26.6 35C26.6 41.6 26.6 48.2 26.6 54.8C26.6 58.2 26.8 61.6 27.8 64.9C29.4 70.1 32 74.7 36.1 78.3C38.5 80.4 41.1 81.9 44.1 82.9C49 84.6 54 84.9 59.1 84.4C65.1 83.8 70.5 81.9 74.8 77.5C76.4 75.9 77.9 74.2 79.1 72.2C81.9 67.4 83.5 62.3 83.4 56.7C83.3 52.7 83.4 48.8 83.4 44.8C83.4 33.7 83.4 22.5 83.4 11.4C83.4 8.5 81.3 6.5 78.5 6.5C62.9 6.5 47.3 6.5 31.7 6.5C28.5 6.5 26.6 8.50001 26.6 11.6C26.6 19.4 26.6 27.2 26.6 35ZM6.89998 105.8C39 105.8 71 105.8 103 105.8C102.4 102.3 101.2 99.2 99.2 96.4C97.1 93.5 94.3 91.2 91.2 89.6C86.5 87.1 81.7 84.7 76.9 82.4C76.7 82.3 76.4 82.4 76.2 82.5C75.6 82.9 75 83.4 74.3 83.9C68.9 87.5 62.9 89.2 56.5 89.4C48.1 89.7 40.3 87.9 33.6 82.5C33.5 82.4 33.1 82.4 32.9 82.5C31.6 83.1 30.4 83.7 29.1 84.3C25.3 86.1 21.4 87.9 17.8 90.2C14.4 92.3 11.5 94.9 9.49998 98.4C8.19998 100.6 7.39998 103.1 6.89998 105.8Z" fill="white" stroke="#E9E9E9" stroke-width="1.8346" stroke-miterlimit="10"/>
<path d="M33.8 23C48 23 62.1 23 76.3 23C76.3 30.9 76.3 38.7 76.3 46.6C62.1 46.6 48 46.6 33.8 46.6C33.8 38.8 33.8 30.9 33.8 23ZM38.5 41.9C49.5 41.9 60.5 41.9 71.5 41.9C71.5 37.2 71.5 32.5 71.5 27.8C60.5 27.8 49.5 27.8 38.5 27.8C38.5 32.5 38.5 37.2 38.5 41.9Z" fill="white"/>
<path d="M38.5 41.9C38.5 37.2 38.5 32.5 38.5 27.8C49.5 27.8 60.5 27.8 71.5 27.8C71.5 32.5 71.5 37.2 71.5 41.9C60.5 41.9 49.5 41.9 38.5 41.9Z" fill="#00EBFE"/>
<path d="M150.3 80.3H168.4V98.7C164.5 102.6 157.3 104.9 151.7 104.9C137.1 104.9 128.5 95.8 128.5 82C128.5 69.2 137.1 59.1 150.7 59.1C157.1 59.1 161.4 60.8 165 63.6L161.7 69.8C159.5 67.7 155.5 66.4 151.7 66.4C143.1 66.4 136.8 72.1 136.8 82C136.8 91.5 142.8 97.6 151.9 97.6C155.3 97.6 159.5 96.1 161.1 94.5V87.5H150.4V80.3H150.3Z" fill="white"/>
<path d="M178 104.3V59.8C180.5 59.8 190.3 59.7 191.5 59.7C203.6 59.7 207.6 65.7 207.6 73.4C207.6 81 202.7 84.8 199 86.1L212.9 104.3H203.4L191.1 87.6H185.6V104.3H178V104.3ZM185.9 67.1V80.3H191C195.5 80.3 199.5 78 199.5 73.4C199.5 69.9 197.6 66.9 191.2 66.9C189.7 66.9 188 67 185.9 67.1Z" fill="white"/>
<path d="M237.9 59.1C251.1 59.1 261.1 68.2 261.1 82C261.1 95.3 251.1 104.9 237.9 104.9C224.7 104.9 214.8 95.8 214.8 82C214.7 69.1 224.2 59.1 237.9 59.1ZM237.9 97.6C247.2 97.6 252.8 90.7 252.8 82C252.8 72.8 246.3 66.4 237.9 66.4C229.4 66.4 223 72.8 223 82C223 90.9 229.5 97.6 237.9 97.6Z" fill="white"/>
<path d="M306.1 85.8C306.1 99.4 297.8 104.9 288.4 104.9C277.3 104.9 269.5 98.4 269.5 85.3V59.7H277.3V83.7C277.3 92 280.7 97.6 288.4 97.6C295.1 97.6 298.3 92.8 298.3 84.2V59.7H306.1V85.8V85.8Z" fill="white"/>
<path d="M317.8 104.3V59.8C320.3 59.8 327.3 59.7 330.5 59.7C343.6 59.7 347.7 66.7 347.7 74C347.7 81.6 342 88.4 331.4 88.4C330.1 88.4 327.5 88.4 325.6 88.2V104.3H317.8ZM325.6 67.1V80.8C327.4 81 329.4 81.1 331.1 81.1C335.7 81.1 339.4 78.9 339.4 73.9C339.4 69.3 336.5 67 331.2 67C329.6 66.9 327.7 67 325.6 67.1Z" fill="white"/>
</svg>
